<svg xmlns="http://www.w3.org/2000/svg" xmlns:xlink="http://www.w3.org/1999/xlink" id="Capa_1" x="0" y="0" version="1.1" viewBox="0 0 56 56" xml:space="preserve" style="enable-background:new 0 0 56 56"><g><path style="fill:#2a55c5" d="M47.364,14H10.5v0.025C10.334,14.016,10.169,14,10,14c-4.694,0-8.5,3.806-8.5,8.5V44h17h12h12h12 V21.136C54.5,17.195,51.305,14,47.364,14z"/><rect style="fill:#be6e41" width="8" height="12" x="24.5" y="44"/><rect style="fill:#6c4127" width="3" height="2" x="29.5" y="46"/><rect style="fill:#6c4127" width="3" height="2" x="29.5" y="49"/><rect style="fill:#6c4127" width="3" height="2" x="29.5" y="52"/><path style="fill:#167cd8" d="M18.5,44h-17V22.5c0-4.694,3.806-8.5,8.5-8.5h0c4.694,0,8.5,3.806,8.5,8.5V44z"/><path style="fill:#38454f" d="M30.5,30L30.5,30c-2.209,0-4-1.791-4-4v0c0-2.209,1.791-4,4-4h0c2.209,0,4,1.791,4,4v0 C34.5,28.209,32.709,30,30.5,30z"/><polygon style="fill:#dd352e" points="42.5 8 30.5 8 30.5 0 42.5 0 39.5 4"/><rect style="fill:#38454f" width="2" height="26" x="29.5"/></g></svg>